<?xml version="1.0" encoding="UTF-8"?>
<svg xmlns="http://www.w3.org/2000/svg" id="Layer_2" data-name="Layer 2" viewBox="0 0 151.3 49.6">
  <defs>
    <style>
      .cls-1 {
        fill: #fff;
      }
    </style>
  </defs>
  <g id="Layer_1-2" data-name="Layer 1">
    <g>
      <path class="cls-1" d="m63.39,49.6c-2.91-.02-5.64-1.16-7.68-3.23-2.05-2.07-3.16-4.81-3.15-7.72.03-5.97,4.92-10.83,10.89-10.83.4,0,.75.02,1.17.07l.54.06s.05.01.08.03h.08c.11.03.23.04.34.07.05,0,.15.06.19.09.35.31.51.76.44,1.22-.07.43-.34.8-.73.99-.04.02-.14.04-.19.04-.24-.04-.55-.1-.55-.1-.01,0-.05,0-.05,0-.47-.07-.88-.11-1.28-.11-4.72,0-8.55,3.8-8.57,8.48-.03,4.7,3.78,8.55,8.48,8.57,4.72,0,8.55-3.8,8.57-8.48l.2-37.32.3-.14h-.3s.02-.13.03-.17c.09-.52.57-.93,1.15-.93.06,0,.12,0,.19.01.31.05.59.22.77.48.19.25.26.57.21.88l-.2,37.2v.28c-.23,5.95-5.01,10.55-10.89,10.55h-.06Z"></path>
      <path class="cls-1" d="m63.39,49.3c-2.83-.02-5.48-1.13-7.47-3.14-1.99-2.01-3.08-4.68-3.06-7.5.03-5.81,4.78-10.53,10.59-10.53h.06c.33,0,.67.02,1.07.07,0,0,.03,0,.03,0,.03,0,.07,0,.1.02h.07s.12.03.12.03c.07,0,.13.01.2.02.02,0,.04,0,.05.02l.11.02c.11.02.22.03.33.05.02,0,.04.01.06.03.27.24.4.59.34.94-.05.33-.26.62-.57.77-.02,0-.04.01-.05.01,0,0-.02,0-.03,0-.16-.03-.32-.06-.48-.09,0,0-.02,0-.02,0,0,0-.01,0-.02,0-.5-.08-.92-.12-1.33-.12h-.05c-4.84,0-8.8,3.94-8.83,8.78-.03,4.87,3.91,8.85,8.78,8.88h.05c4.84,0,8.8-3.94,8.83-8.78l.2-37.32s0-.04,0-.07v-.07s0-.03.01-.05c.08-.45.44-.75.87-.75.05,0,.09,0,.14.01.23.04.44.16.58.35.14.19.2.43.16.66l-.2,37.24c0,.09,0,.18,0,.27v.08c-.22,5.71-4.86,10.18-10.58,10.18,0,0-.06,0-.06,0Z"></path>
      <path class="cls-1" d="m63.38,49.48c-2.88-.02-5.57-1.15-7.59-3.19-2.02-2.04-3.13-4.75-3.11-7.63.03-5.9,4.86-10.71,10.76-10.71.42,0,.77.03,1.12.07.01,0,.05,0,.06,0l.5.07s.06.01.08.03h.07c.12.03.23.04.34.07.05.01.1.04.14.07.31.28.46.69.4,1.1-.06.39-.31.72-.66.9-.04.02-.09.03-.13.03-.02,0-.04,0-.06,0-.15-.03-.29-.06-.44-.08,0,0-.05,0-.06,0-.49-.08-.91-.11-1.31-.12-4.79,0-8.67,3.86-8.7,8.6-.01,2.31.88,4.49,2.5,6.13,1.62,1.64,3.79,2.55,6.1,2.57,4.79,0,8.67-3.86,8.7-8.6l.2-37.32s.01-.11.03-.16h-.03c.09-.58.53-.95,1.05-.95.06,0,.11,0,.17.01.58.09.98.64.88,1.22l-.2,37.22v.26c-.23,5.89-4.95,10.44-10.76,10.44h-.06Z"></path>
      <path class="cls-1" d="m73.9,39.11c0-.11,0-.23.01-.34h0s.2-37.26.2-37.26h0c.07-.42-.22-.81-.63-.87s-.81.22-.87.63c0,.01,0,.02,0,.03h0s0,.07,0,.07c0,.02,0,.05,0,.07l-.19,35.14v2.18s-.01,0-.01,0c-.03,4.94-4.06,8.93-9,8.9-4.94-.03-8.93-4.06-8.9-9,.03-4.94,4.06-8.93,9-8.9.46,0,.91.05,1.35.12h0c.18.02.35.05.52.09.26-.13.45-.37.5-.68.05-.32-.07-.63-.3-.83-.16-.03-.32-.05-.49-.08h0c-.1-.03-.21-.04-.32-.05-.06,0-.11-.02-.17-.03,0,0,0,0,0,0-.36-.04-.72-.07-1.08-.07-5.78-.03-10.49,4.63-10.52,10.41-.03,5.78,4.63,10.49,10.41,10.52,5.66.03,10.3-4.45,10.51-10.07Z"></path>
      <g>
        <path class="cls-1" d="m51.61,21.06c-.62,0-1.08-.47-1.08-1.08V1.44c0-.64.45-1.08,1.08-1.08h6.5c6.43,0,10.59,4.06,10.59,10.35s-4.16,10.35-10.59,10.35h-6.5Zm6.53-2.32c5.01,0,8.12-3.08,8.12-8.03s-3.11-8.03-8.12-8.03h-5.17v16.07h5.17Z"></path>
        <path class="cls-1" d="m51.61,20.76c-.45,0-.78-.33-.78-.78V1.44c0-.47.32-.78.78-.78h6.5c6.25,0,10.29,3.95,10.29,10.05s-4.04,10.05-10.29,10.05h-6.5Zm6.53-1.72c5.2,0,8.42-3.19,8.42-8.33s-3.23-8.33-8.42-8.33h-5.47v16.67h5.47Z"></path>
        <path class="cls-1" d="m51.61,20.94c-.56,0-.96-.4-.96-.96V1.44c0-.57.4-.96.96-.96h6.5c6.36,0,10.47,4.02,10.47,10.23s-4.11,10.23-10.47,10.23h-6.5Zm6.53-2.07c5.09,0,8.25-3.13,8.25-8.16s-3.16-8.16-8.25-8.16h-5.3v16.31h5.3Z"></path>
        <path class="cls-1" d="m51.61,20.64c-.39,0-.66-.27-.66-.66V1.44c0-.4.26-.66.66-.66h6.5c6.18,0,10.17,3.9,10.17,9.93s-3.99,9.93-10.17,9.93h-6.5Zm6.53-1.47c5.27,0,8.55-3.24,8.55-8.46s-3.27-8.46-8.55-8.46h-5.6v16.91h5.6Z"></path>
        <path class="cls-1" d="m51.61,20.82c-.49,0-.84-.35-.84-.84V1.44c0-.5.34-.84.84-.84h6.5c6.28,0,10.35,3.97,10.35,10.11s-4.06,10.11-10.35,10.11h-6.5Zm6.53-1.83c5.16,0,8.37-3.17,8.37-8.28s-3.21-8.28-8.37-8.28h-5.42v16.56h5.42Z"></path>
        <path class="cls-1" d="m51.61,20.52c-.32,0-.54-.22-.54-.54V1.44c0-.34.2-.54.54-.54h6.5c6.1,0,10.05,3.85,10.05,9.81s-3.94,9.81-10.05,9.81h-6.5Zm6.53-1.23c5.35,0,8.67-3.29,8.67-8.58s-3.32-8.58-8.67-8.58h-5.72v17.16h5.72Z"></path>
        <path class="cls-1" d="m51.61,20.69c-.42,0-.72-.29-.72-.72V1.44c0-.44.28-.72.72-.72h6.5c6.21,0,10.22,3.92,10.22,9.98s-4.01,9.98-10.22,9.98h-6.5Zm6.53-1.58c5.24,0,8.49-3.22,8.49-8.4s-3.25-8.4-8.49-8.4h-5.54v16.8h5.54Z"></path>
        <path class="cls-1" d="m51.2,19.98V1.44c0-.27.15-.42.42-.42h6.5c6.2,0,9.92,3.9,9.92,9.68s-3.72,9.68-9.92,9.68h-6.5c-.27,0-.42-.18-.42-.42Zm6.94-.57c5.48,0,8.79-3.49,8.79-8.7s-3.31-8.7-8.79-8.7h-5.84v17.4h5.84Z"></path>
        <path class="cls-1" d="m80.1,21.06c-.62,0-1.08-.47-1.08-1.08V1.44c0-.64.45-1.08,1.08-1.08h11.47c.65,0,1.11.46,1.11,1.08v.15c0,.63-.47,1.08-1.11,1.08h-10.12v6.77h7.79c.65,0,1.11.46,1.11,1.08v.15c0,.63-.47,1.08-1.11,1.08h-7.79v6.98h10.12c.65,0,1.11.46,1.11,1.08v.15c0,.63-.47,1.08-1.11,1.08h-11.47Z"></path>
        <path class="cls-1" d="m80.1,20.76c-.45,0-.78-.33-.78-.78V1.44c0-.47.32-.78.78-.78h11.47c.48,0,.81.32.81.78v.15c0,.46-.33.78-.81.78h-10.42v7.37h8.1c.48,0,.81.32.81.78v.15c0,.46-.33.78-.81.78h-8.1v7.58h10.42c.48,0,.81.32.81.78v.15c0,.46-.33.78-.81.78h-11.47Z"></path>
        <path class="cls-1" d="m80.1,20.94c-.56,0-.96-.4-.96-.96V1.44c0-.57.4-.96.96-.96h11.47c.58,0,.99.4.99.96v.15c0,.57-.41.96-.99.96h-10.24v7.02h7.92c.58,0,.99.4.99.96v.15c0,.56-.42.96-.99.96h-7.92v7.22h10.24c.58,0,.99.4.99.96v.15c0,.56-.42.96-.99.96h-11.47Z"></path>
        <path class="cls-1" d="m80.1,20.64c-.39,0-.66-.27-.66-.66V1.44c0-.4.26-.66.66-.66h11.47c.41,0,.69.27.69.66v.15c0,.4-.28.66-.69.66h-10.54v7.61h8.22c.41,0,.69.27.69.66v.15c0,.4-.28.66-.69.66h-8.22v7.82h10.54c.41,0,.69.27.69.66v.15c0,.4-.28.66-.69.66h-11.47Z"></path>
        <path class="cls-1" d="m80.1,20.82c-.49,0-.84-.35-.84-.84V1.44c0-.5.34-.84.84-.84h11.47c.51,0,.87.35.87.84v.15c0,.49-.36.84-.87.84h-10.36v7.26h8.04c.51,0,.87.35.87.84v.15c0,.49-.36.84-.87.84h-8.04v7.47h10.36c.51,0,.87.35.87.84v.15c0,.49-.36.84-.87.84h-11.47Z"></path>
        <path class="cls-1" d="m80.1,20.52c-.32,0-.54-.22-.54-.54V1.44c0-.34.2-.54.54-.54h11.47c.35,0,.57.21.57.54v.15c0,.33-.22.54-.57.54h-10.66v7.86h8.34c.35,0,.57.21.57.54v.15c0,.33-.22.54-.57.54h-8.34v8.07h10.66c.35,0,.57.21.57.54v.15c0,.33-.22.54-.57.54h-11.47Z"></path>
        <path class="cls-1" d="m80.1,20.69c-.42,0-.72-.29-.72-.72V1.44c0-.44.28-.72.72-.72h11.47c.45,0,.75.29.75.72v.15c0,.43-.3.72-.75.72h-10.49v7.51h8.16c.45,0,.75.29.75.72v.15c0,.43-.3.72-.75.72h-8.16v7.71h10.49c.45,0,.75.29.75.72v.15c0,.43-.3.72-.75.72h-11.47Z"></path>
        <path class="cls-1" d="m79.68,19.98V1.44c0-.27.15-.42.42-.42h11.47c.27,0,.45.15.45.42v.15c0,.27-.18.42-.45.42h-10.79v8.1h8.46c.27,0,.45.15.45.42v.15c0,.27-.18.42-.45.42h-8.46v8.31h10.79c.27,0,.45.15.45.42v.15c0,.27-.18.42-.45.42h-11.47c-.27,0-.42-.18-.42-.42Z"></path>
        <path class="cls-1" d="m103.88,21.42c-5.94,0-10.59-4.7-10.59-10.71S97.95,0,103.91,0c2.81,0,5.15.84,7.14,2.58.32.28.39.59.4.81.01.3-.11.59-.34.82-.02.02-.09.08-.11.09-.2.2-.49.32-.81.32-.29,0-.58-.11-.83-.3-1.48-1.28-3.43-1.97-5.49-1.97-4.57,0-8.15,3.67-8.15,8.36s3.61,8.36,8.21,8.36c1.55,0,3.78-.31,5.74-1.77v-5.24h-5.41c-.65,0-1.11-.46-1.11-1.08v-.18c0-.6.48-1.05,1.11-1.05h6.73c.65,0,1.11.46,1.11,1.08v6.82c0,.51-.19.9-.61,1.27-.94.76-3.55,2.49-7.62,2.49Z"></path>
        <path class="cls-1" d="m103.88,21.12c-5.77,0-10.29-4.57-10.29-10.41S98.12.3,103.91.3c2.74,0,5.01.82,6.95,2.5.24.21.29.44.3.59,0,.22-.08.43-.25.6-.02.02-.04.03-.06.05l-.06.04c-.13.15-.35.23-.58.23s-.45-.08-.65-.23c-1.52-1.32-3.54-2.04-5.67-2.04-4.74,0-8.45,3.8-8.45,8.66s3.74,8.66,8.51,8.66c1.63,0,3.99-.34,6.04-1.93v-5.68h-5.71c-.48,0-.81-.32-.81-.78v-.18c0-.44.34-.75.81-.75h6.73c.48,0,.81.32.81.78v6.82c0,.42-.15.73-.51,1.05-.91.73-3.45,2.42-7.43,2.42Z"></path>
        <path class="cls-1" d="m103.88,21.3c-5.87,0-10.47-4.65-10.47-10.59S98.02.12,103.91.12c2.78,0,5.09.83,7.06,2.55.28.25.35.53.36.72,0,.27-.1.53-.3.73-.02.02-.07.06-.09.07-.2.2-.46.3-.74.3-.26,0-.53-.1-.75-.27-1.5-1.29-3.47-2-5.57-2-4.64,0-8.28,3.73-8.28,8.48s3.66,8.48,8.33,8.48c1.58,0,3.87-.32,5.86-1.84v-5.42h-5.53c-.58,0-.99-.4-.99-.96v-.18c0-.54.42-.93.99-.93h6.73c.58,0,.99.4.99.96v6.82c0,.47-.17.83-.57,1.18-.93.75-3.51,2.46-7.54,2.46Z"></path>
        <path class="cls-1" d="m103.88,21c-5.7,0-10.17-4.52-10.17-10.29S98.19.42,103.91.42c2.71,0,4.95.81,6.87,2.47.2.18.25.37.26.5,0,.19-.07.37-.21.51-.01.01-.02.02-.04.03l-.06.04c-.13.14-.31.21-.51.21s-.4-.07-.57-.21c-1.55-1.33-3.58-2.06-5.75-2.06-4.81,0-8.57,3.86-8.57,8.78s3.79,8.78,8.63,8.78c1.67,0,4.08-.35,6.16-1.99v-5.87h-5.83c-.41,0-.69-.27-.69-.66v-.18c0-.37.28-.63.69-.63h6.73c.41,0,.69.27.69.66v6.82c0,.38-.14.66-.47.96-.9.72-3.41,2.39-7.34,2.39Z"></path>
        <path class="cls-1" d="m103.88,21.17c-5.8,0-10.34-4.6-10.34-10.46S98.09.25,103.91.25c2.75,0,5.04.82,6.98,2.52.2.17.31.4.32.63,0,.24-.09.46-.26.64l-.15.11c-.08.12-.33.23-.59.23-.23,0-.48-.09-.68-.25-1.52-1.31-3.52-2.03-5.64-2.03-4.71,0-8.4,3.78-8.4,8.61s3.71,8.61,8.46,8.61c1.62,0,3.96-.33,5.98-1.9v-5.6h-5.66c-.51,0-.87-.35-.87-.84v-.18c0-.47.37-.81.87-.81h6.73c.51,0,.87.35.87.84v6.82c0,.44-.16.76-.53,1.09-.92.74-3.47,2.43-7.46,2.43Z"></path>
        <path class="cls-1" d="m103.88,20.87c-5.63,0-10.04-4.46-10.04-10.16S98.26.54,103.91.54c2.68,0,4.9.8,6.78,2.44.13.12.21.26.21.42,0,.15-.06.3-.18.42l-.11.08c-.09.11-.24.18-.42.18-.17,0-.35-.06-.5-.18-1.56-1.35-3.63-2.09-5.82-2.09-4.88,0-8.7,3.91-8.7,8.91s3.85,8.91,8.76,8.91c1.7,0,4.16-.36,6.28-2.05v-6.05h-5.96c-.35,0-.57-.21-.57-.54v-.18c0-.3.23-.51.57-.51h6.73c.35,0,.57.21.57.54v6.82c0,.35-.12.59-.43.87-.89.71-3.36,2.36-7.26,2.36Z"></path>
        <path class="cls-1" d="m103.88,21.05c-5.73,0-10.22-4.54-10.22-10.34S98.16.37,103.91.37c2.72,0,4.98.81,6.9,2.49.22.19.27.4.27.54,0,.2-.08.4-.23.55l-.13.1c-.08.11-.29.21-.52.21-.21,0-.42-.08-.61-.22-1.54-1.33-3.56-2.05-5.71-2.05-4.78,0-8.52,3.83-8.52,8.73s3.77,8.73,8.58,8.73c1.65,0,4.04-.34,6.11-1.96v-5.78h-5.78c-.45,0-.75-.29-.75-.72v-.18c0-.4.31-.69.75-.69h6.73c.45,0,.75.29.75.72v6.82c0,.4-.14.69-.49,1-.91.73-3.42,2.4-7.38,2.4Z"></path>
        <path class="cls-1" d="m93.96,10.71c0-5.63,4.29-10.04,9.95-10.04,2.65,0,4.86.8,6.7,2.41.24.21.21.48.03.66l-.09.06c-.18.21-.51.21-.77,0-1.52-1.31-3.58-2.12-5.9-2.12-4.92,0-8.82,3.99-8.82,9.03s3.96,9.03,8.88,9.03c3.69,0,5.78-1.61,6.41-2.12v-6.23h-6.08c-.27,0-.45-.15-.45-.42v-.18c0-.24.18-.39.45-.39h6.73c.27,0,.45.15.45.42v6.82c0,.33-.12.54-.39.77-.74.6-3.22,2.32-7.18,2.32-5.57,0-9.92-4.41-9.92-10.04Z"></path>
        <path class="cls-1" d="m124.95,21.42c-6.21,0-10.89-4.6-10.89-10.71S118.74,0,124.95,0s10.89,4.6,10.89,10.71-4.68,10.71-10.89,10.71Zm0-19.07c-4.74,0-8.45,3.67-8.45,8.36s3.71,8.36,8.45,8.36,8.45-3.67,8.45-8.36-3.71-8.36-8.45-8.36Z"></path>
        <path class="cls-1" d="m124.95,21.12c-6.04,0-10.59-4.48-10.59-10.41S118.91.3,124.95.3s10.59,4.48,10.59,10.41-4.55,10.41-10.59,10.41Zm0-19.07c-4.91,0-8.75,3.8-8.75,8.66s3.84,8.66,8.75,8.66,8.75-3.8,8.75-8.66-3.84-8.66-8.75-8.66Z"></path>
        <path class="cls-1" d="m124.95,21.3c-6.14,0-10.77-4.55-10.77-10.59S118.81.12,124.95.12s10.77,4.55,10.77,10.59-4.63,10.59-10.77,10.59Zm0-19.07c-4.81,0-8.57,3.73-8.57,8.48s3.77,8.48,8.57,8.48,8.57-3.73,8.57-8.48-3.77-8.48-8.57-8.48Z"></path>
        <path class="cls-1" d="m124.95,21c-5.97,0-10.47-4.42-10.47-10.29S118.98.42,124.95.42s10.47,4.42,10.47,10.29-4.5,10.29-10.47,10.29Zm0-19.07c-4.98,0-8.87,3.86-8.87,8.78s3.9,8.78,8.87,8.78,8.87-3.86,8.87-8.78-3.9-8.78-8.87-8.78Z"></path>
        <path class="cls-1" d="m124.95,21.17c-6.07,0-10.64-4.5-10.64-10.46S118.88.25,124.95.25s10.64,4.5,10.64,10.46-4.58,10.46-10.64,10.46Zm0-19.07c-4.88,0-8.7,3.78-8.7,8.61s3.82,8.61,8.7,8.61,8.7-3.78,8.7-8.61-3.82-8.61-8.7-8.61Z"></path>
        <path class="cls-1" d="m124.95,20.87c-5.9,0-10.34-4.37-10.34-10.16S119.05.54,124.95.54s10.34,4.37,10.34,10.16-4.45,10.16-10.34,10.16Zm0-19.07c-5.04,0-9,3.91-9,8.91s3.95,8.91,9,8.91,9-3.91,9-8.91-3.95-8.91-9-8.91Z"></path>
        <path class="cls-1" d="m124.95,21.05c-6,0-10.52-4.45-10.52-10.34S118.95.37,124.95.37s10.52,4.45,10.52,10.34-4.52,10.34-10.52,10.34Zm0-19.07c-4.94,0-8.82,3.83-8.82,8.73s3.87,8.73,8.82,8.73,8.82-3.83,8.82-8.73-3.87-8.73-8.82-8.73Z"></path>
        <path class="cls-1" d="m114.73,10.71c0-5.66,4.35-10.04,10.22-10.04s10.22,4.38,10.22,10.04-4.32,10.04-10.22,10.04-10.22-4.38-10.22-10.04Zm19.34,0c0-5.07-3.93-9.03-9.12-9.03s-9.12,3.96-9.12,9.03,3.93,9.03,9.12,9.03,9.12-3.96,9.12-9.03Z"></path>
        <path class="cls-1" d="m43.56,49.4c-2.37,0-4.4-1.05-5.87-3.04-.39-.52-.34-1.12.13-1.53l.21-.18c.27-.19.49-.26.72-.26.26,0,.62.09.93.55.72.96,1.98,2.12,3.88,2.12,2.24,0,3.74-1.55,3.74-3.86v-13.71c0-.65.47-1.14,1.08-1.14h.24c.64,0,1.11.49,1.11,1.14v13.71c0,3.66-2.54,6.21-6.18,6.21Z"></path>
        <path class="cls-1" d="m43.56,49.1c-2.27,0-4.21-1.01-5.63-2.92-.3-.4-.27-.82.09-1.12l.21-.18c.19-.13.36-.19.52-.19.27,0,.49.14.68.41.76,1.02,2.1,2.25,4.13,2.25,2.42,0,4.04-1.67,4.04-4.16v-13.71c0-.49.33-.84.78-.84h.24c.47,0,.81.35.81.84v13.71c0,3.48-2.42,5.91-5.88,5.91Z"></path>
        <path class="cls-1" d="m43.56,49.28c-2.33,0-4.32-1.03-5.77-2.99-.36-.48-.31-1,.11-1.37l.21-.18c.24-.16.44-.23.64-.23.23,0,.55.09.82.49.73.98,2.03,2.17,3.99,2.17,2.31,0,3.86-1.6,3.86-3.98v-13.71c0-.58.41-1.02.96-1.02h.24c.57,0,.99.43.99,1.02v13.71c0,3.58-2.49,6.09-6.06,6.09Z"></path>
        <path class="cls-1" d="m43.56,48.98c-2.23,0-4.14-.99-5.53-2.87-.26-.35-.24-.7.07-.96l.21-.18c.17-.11.31-.16.44-.16.22,0,.42.12.57.36.78,1.05,2.15,2.3,4.24,2.3,2.49,0,4.16-1.72,4.16-4.28v-13.71c0-.42.28-.72.66-.72h.24c.41,0,.69.3.69.72v13.71c0,3.41-2.37,5.79-5.76,5.79Z"></path>
        <path class="cls-1" d="m43.56,49.16c-2.29,0-4.25-1.02-5.67-2.94-.38-.5-.2-.95.09-1.2l.21-.18c.21-.14.38-.2.56-.2.2,0,.48.08.72.44.75,1.01,2.08,2.23,4.09,2.23,2.39,0,3.99-1.65,3.99-4.11v-13.71c0-.52.35-.9.84-.9h.24c.5,0,.87.38.87.9v13.71c0,3.51-2.44,5.96-5.93,5.96Z"></path>
        <path class="cls-1" d="m43.56,48.86c-2.19,0-4.07-.98-5.43-2.82-.3-.4-.1-.67.05-.79l.21-.18c.14-.09.25-.13.36-.13.18,0,.34.1.47.31.8,1.07,2.2,2.36,4.34,2.36,2.56,0,4.29-1.77,4.29-4.41v-13.71c0-.35.22-.6.54-.6h.24c.34,0,.57.24.57.6v13.71c0,3.34-2.32,5.66-5.63,5.66Z"></path>
        <path class="cls-1" d="m43.56,49.03c-2.25,0-4.17-1-5.58-2.89-.28-.37-.25-.75.08-1.03l.21-.18c.18-.12.33-.18.48-.18.24,0,.45.13.62.38.77,1.03,2.13,2.28,4.19,2.28,2.46,0,4.11-1.7,4.11-4.23v-13.71c0-.45.3-.78.72-.78h.24c.44,0,.75.32.75.78v13.71c0,3.44-2.39,5.84-5.81,5.84Z"></path>
        <path class="cls-1" d="m38.22,45.96c-.18-.24-.18-.45.03-.63l.21-.18c.27-.18.48-.12.66.15,1.04,1.4,2.53,2.41,4.44,2.41,2.56,0,4.41-1.76,4.41-4.53v-13.71c0-.3.18-.48.42-.48h.24c.27,0,.45.18.45.48v13.71c0,3.46-2.41,5.54-5.51,5.54-2.38,0-4.14-1.16-5.33-2.77Z"></path>
        <path class="cls-1" d="m85.26,49.04c-.64,0-1.08-.47-1.08-1.14v-6.69l-7.2-11.37c-.19-.33-.2-.71-.02-1.02.17-.3.49-.48.85-.48h.39c.51,0,.91.25,1.18.73l6,9.58,6.02-9.61c.25-.46.65-.7,1.16-.7h.33c.39,0,.73.2.9.52.17.32.13.71-.08,1.01l-7.09,11.28v6.75c0,.65-.48,1.14-1.11,1.14h-.24Z"></path>
        <path class="cls-1" d="m85.26,48.74c-.47,0-.78-.34-.78-.84v-6.78l-7.24-11.44c-.13-.23-.14-.5-.01-.71.12-.21.34-.33.59-.33h.39c.4,0,.7.19.92.58l6.26,10,6.27-10.02c.21-.37.51-.56.91-.56h.33c.28,0,.51.13.63.36.11.22.09.49-.06.7l-7.14,11.36v6.84c0,.49-.34.84-.81.84h-.24Z"></path>
        <path class="cls-1" d="m85.26,48.92c-.57,0-.96-.42-.96-1.02v-6.73l-7.22-11.4c-.17-.29-.17-.63-.01-.89.15-.26.43-.42.74-.42h.39c.46,0,.83.22,1.07.67l6.11,9.76,6.12-9.78c.23-.42.59-.64,1.06-.64h.33c.35,0,.64.17.79.46.14.28.11.62-.08.88l-7.11,11.31v6.79c0,.59-.42,1.02-.99,1.02h-.24Z"></path>
        <path class="cls-1" d="m85.26,48.62c-.4,0-.66-.28-.66-.72v-6.81l-7.26-11.47c-.11-.19-.11-.41,0-.58.1-.17.28-.27.48-.27h.39c.36,0,.62.16.81.51l6.37,10.18,6.38-10.19c.19-.34.45-.5.8-.5h.33c.23,0,.43.11.52.29.09.18.07.4-.05.57l-7.17,11.4v6.87c0,.42-.28.72-.69.72h-.24Z"></path>
        <path class="cls-1" d="m85.26,48.8c-.5,0-.84-.36-.84-.9v-6.76l-7.23-11.43c-.14-.25-.15-.54-.01-.77.13-.22.37-.36.64-.36h.39c.42,0,.74.2.96.6l6.22,9.93,6.23-9.95c.21-.38.54-.59.95-.59h.33c.3,0,.55.15.68.39.12.24.1.53-.07.75l-7.13,11.35v6.82c0,.52-.37.9-.87.9h-.24Z"></path>
        <path class="cls-1" d="m85.26,48.5c-.33,0-.54-.23-.54-.6v-6.85l-7.28-11.5c-.08-.15-.09-.32,0-.46.08-.13.21-.21.38-.21h.39c.31,0,.53.14.7.45l6.48,10.35,6.48-10.35c.17-.3.39-.44.7-.44h.33c.18,0,.34.09.41.23.07.14.05.31-.04.44l-7.19,11.44v6.91c0,.36-.23.6-.57.6h-.24Z"></path>
        <path class="cls-1" d="m85.26,48.68c-.43,0-.72-.31-.72-.78v-6.8l-7.25-11.46c-.12-.21-.12-.45-.01-.64.11-.19.31-.3.53-.3h.39c.38,0,.66.18.86.54l6.32,10.1,6.33-10.11c.2-.35.48-.53.85-.53h.33c.25,0,.46.12.57.32.1.2.08.44-.06.63l-7.16,11.38v6.86c0,.46-.31.78-.75.78h-.24Z"></path>
        <path class="cls-1" d="m93.15,29.49l-7.21,11.47v6.94c0,.3-.18.48-.45.48h-.24c-.27,0-.42-.18-.42-.48v-6.88l-7.3-11.53c-.12-.21,0-.48.27-.48h.39c.27,0,.45.12.6.39l6.59,10.52,6.59-10.52c.15-.27.33-.39.6-.39h.33c.3,0,.42.27.27.48Z"></path>
        <path class="cls-1" d="m97.71,49.04c-.62,0-1.08-.47-1.08-1.08v-18.53c0-.64.45-1.08,1.08-1.08h11.47c.65,0,1.11.46,1.11,1.08v.15c0,.63-.47,1.08-1.11,1.08h-10.12v6.77h7.8c.65,0,1.11.46,1.11,1.08v.15c0,.63-.47,1.08-1.11,1.08h-7.8v6.98h10.12c.65,0,1.11.46,1.11,1.08v.15c0,.63-.47,1.08-1.11,1.08h-11.47Z"></path>
        <path class="cls-1" d="m97.71,48.74c-.45,0-.78-.33-.78-.78v-18.53c0-.47.32-.78.78-.78h11.47c.48,0,.81.32.81.78v.15c0,.46-.33.78-.81.78h-10.42v7.37h8.1c.48,0,.81.32.81.78v.15c0,.46-.33.78-.81.78h-8.1v7.58h10.42c.48,0,.81.32.81.78v.15c0,.46-.33.78-.81.78h-11.47Z"></path>
        <path class="cls-1" d="m97.71,48.92c-.56,0-.96-.4-.96-.96v-18.53c0-.57.4-.96.96-.96h11.47c.58,0,.99.4.99.96v.15c0,.56-.42.96-.99.96h-10.24v7.01h7.92c.58,0,.99.4.99.96v.15c0,.56-.42.96-.99.96h-7.92v7.22h10.24c.58,0,.99.4.99.96v.15c0,.56-.42.96-.99.96h-11.47Z"></path>
        <path class="cls-1" d="m97.71,48.62c-.39,0-.66-.27-.66-.66v-18.53c0-.4.26-.66.66-.66h11.47c.41,0,.69.27.69.66v.15c0,.4-.28.66-.69.66h-10.54v7.61h8.22c.41,0,.69.27.69.66v.15c0,.4-.28.66-.69.66h-8.22v7.82h10.54c.41,0,.69.27.69.66v.15c0,.4-.28.66-.69.66h-11.47Z"></path>
        <path class="cls-1" d="m97.71,48.8c-.49,0-.84-.35-.84-.84v-18.53c0-.5.34-.84.84-.84h11.47c.51,0,.87.35.87.84v.15c0,.49-.36.84-.87.84h-10.36v7.26h8.04c.51,0,.87.34.87.84v.15c0,.49-.36.84-.87.84h-8.04v7.47h10.36c.51,0,.87.34.87.84v.15c0,.49-.36.84-.87.84h-11.47Z"></path>
        <path class="cls-1" d="m97.71,48.5c-.32,0-.54-.22-.54-.54v-18.53c0-.34.2-.54.54-.54h11.47c.35,0,.57.21.57.54v.15c0,.33-.22.54-.57.54h-10.66v7.86h8.34c.35,0,.57.21.57.54v.15c0,.33-.22.54-.57.54h-8.34v8.07h10.66c.35,0,.57.21.57.54v.15c0,.33-.22.54-.57.54h-11.47Z"></path>
        <path class="cls-1" d="m97.71,48.68c-.42,0-.72-.29-.72-.72v-18.53c0-.44.28-.72.72-.72h11.47c.45,0,.75.29.75.72v.15c0,.43-.3.72-.75.72h-10.49v7.5h8.16c.45,0,.75.29.75.72v.15c0,.42-.31.72-.75.72h-8.16v7.71h10.49c.44,0,.75.29.75.72v.15c0,.42-.31.72-.75.72h-11.47Z"></path>
        <path class="cls-1" d="m97.3,47.96v-18.53c0-.27.15-.42.42-.42h11.47c.27,0,.45.15.45.42v.15c0,.27-.18.42-.45.42h-10.79v8.1h8.46c.27,0,.45.15.45.42v.15c0,.27-.18.42-.45.42h-8.46v8.31h10.79c.27,0,.45.15.45.42v.15c0,.27-.18.42-.45.42h-11.47c-.27,0-.42-.18-.42-.42Z"></path>
        <path class="cls-1" d="m126.14,49.04c-.58,0-.86-.26-1.1-.64l-4.3-7.97h-5.16v7.47c0,.65-.48,1.14-1.11,1.14h-.24c-.64,0-1.08-.47-1.08-1.14v-18.47c0-.64.45-1.08,1.08-1.08h6.67c4.19,0,6.89,2.37,6.89,6.03,0,2.88-1.71,5.07-4.5,5.79l4,7.4c.19.34.2.72.02,1.03-.17.29-.48.46-.84.46h-.33Zm-4.86-10.9c2.4,0,4.07-1.55,4.07-3.77s-1.72-3.71-4.28-3.71h-5.5v7.49h5.71Z"></path>
        <path class="cls-1" d="m126.14,48.74c-.45,0-.64-.18-.85-.5l-4.38-8.11h-5.64v7.77c0,.49-.34.84-.81.84h-.24c-.47,0-.78-.34-.78-.84v-18.47c0-.47.32-.78.78-.78h6.67c4.01,0,6.6,2.25,6.6,5.73,0,2.88-1.78,5-4.66,5.58l4.19,7.74c.14.25.15.52.02.73-.12.2-.33.31-.58.31h-.33Zm-4.86-10.3c2.57,0,4.37-1.67,4.37-4.07s-1.84-4.01-4.58-4.01h-5.8v8.09h6.01Z"></path>
        <path class="cls-1" d="m126.14,48.92c-.53,0-.77-.22-1-.58l-4.33-8.03h-5.36v7.59c0,.59-.42,1.02-.99,1.02h-.24c-.57,0-.96-.42-.96-1.02v-18.47c0-.57.4-.96.96-.96h6.67c4.11,0,6.77,2.32,6.77,5.91,0,2.89-1.74,5.04-4.56,5.7l4.08,7.53c.17.31.18.64.02.91-.15.26-.42.4-.74.4h-.33Zm-4.86-10.65c2.47,0,4.19-1.6,4.19-3.9s-1.77-3.83-4.4-3.83h-5.62v7.73h5.83Z"></path>
        <path class="cls-1" d="m126.14,48.62c-.4,0-.56-.14-.74-.44l-4.41-8.17h-5.84v7.89c0,.42-.28.72-.69.72h-.24c-.4,0-.66-.28-.66-.72v-18.47c0-.4.26-.66.66-.66h6.67c3.93,0,6.47,2.2,6.47,5.61,0,2.89-1.8,4.97-4.72,5.49l4.27,7.89c.12.21.13.44.02.61-.09.16-.27.25-.48.25h-.33Zm-4.86-10.05c2.65,0,4.49-1.72,4.49-4.2s-1.89-4.14-4.7-4.14h-5.92v8.33h6.13Z"></path>
        <path class="cls-1" d="m126.14,48.8c-.47,0-.69-.19-.89-.53l-4.36-8.09h-5.55v7.71c0,.52-.37.9-.87.9h-.24c-.5,0-.84-.36-.84-.9v-18.47c0-.5.34-.84.84-.84h6.67c4.1,0,6.65,2.22,6.65,5.79,0,2.89-1.76,5.01-4.63,5.62l4.16,7.68c.15.26.16.56.02.79-.13.21-.36.34-.63.34h-.33Zm-4.86-10.41c2.54,0,4.32-1.65,4.32-4.02s-1.82-3.96-4.52-3.96h-5.75v7.98h5.96Z"></path>
        <path class="cls-1" d="m126.14,48.5c-.34,0-.47-.11-.64-.39l-4.44-8.23h-6.03v8.01c0,.36-.23.6-.57.6h-.24c-.33,0-.54-.23-.54-.6v-18.47c0-.34.2-.54.54-.54h6.67c3.92,0,6.35,2.1,6.35,5.49,0,2.88-1.83,4.94-4.79,5.4l4.36,8.04c.1.17.11.36.02.49-.07.12-.21.19-.37.19h-.33Zm-4.86-9.81c2.72,0,4.62-1.78,4.62-4.32s-1.94-4.26-4.82-4.26h-6.05v8.58h6.25Z"></path>
        <path class="cls-1" d="m126.14,48.68c-.46,0-.62-.2-.79-.47l-4.39-8.14h-5.75v7.83c0,.46-.31.78-.75.78h-.24c-.43,0-.72-.31-.72-.78v-18.47c0-.44.28-.72.72-.72h6.67c3.96,0,6.53,2.22,6.53,5.66,0,2.85-1.83,4.98-4.69,5.53l4.24,7.82c.13.23.14.47.02.67-.11.18-.3.28-.52.28h-.33Zm-4.86-10.16c2.61,0,4.44-1.7,4.44-4.14s-1.82-4.08-4.65-4.08h-5.87v8.22h6.08Z"></path>
        <path class="cls-1" d="m126.71,47.87c.15.27.03.51-.24.51h-.33c-.3,0-.39-.09-.54-.33l-4.47-8.28h-6.23v8.13c0,.3-.18.48-.45.48h-.24c-.27,0-.42-.18-.42-.48v-18.47c0-.27.15-.42.42-.42h6.67c3.84,0,6.23,2.09,6.23,5.36,0,2.92-1.94,4.92-4.86,5.3l4.44,8.19Zm-11.8-9.06h6.38c2.77,0,4.74-1.82,4.74-4.44s-1.94-4.38-4.95-4.38h-6.17v8.82Z"></path>
        <path class="cls-1" d="m140.42,49.4c-6.21,0-10.89-4.6-10.89-10.71s4.68-10.71,10.89-10.71,10.89,4.6,10.89,10.71-4.68,10.71-10.89,10.71Zm0-19.07c-4.74,0-8.45,3.67-8.45,8.36s3.71,8.36,8.45,8.36,8.45-3.67,8.45-8.36-3.71-8.36-8.45-8.36Z"></path>
        <path class="cls-1" d="m140.41,49.1c-6.04,0-10.59-4.48-10.59-10.41s4.55-10.41,10.59-10.41,10.59,4.48,10.59,10.41-4.55,10.41-10.59,10.41Zm0-19.07c-4.91,0-8.75,3.8-8.75,8.66s3.84,8.66,8.75,8.66,8.75-3.8,8.75-8.66-3.84-8.66-8.75-8.66Z"></path>
        <path class="cls-1" d="m140.42,49.28c-6.14,0-10.77-4.55-10.77-10.59s4.63-10.59,10.77-10.59,10.76,4.55,10.76,10.59-4.63,10.59-10.76,10.59Zm0-19.07c-4.81,0-8.57,3.73-8.57,8.48s3.77,8.48,8.57,8.48,8.57-3.73,8.57-8.48-3.77-8.48-8.57-8.48Z"></path>
        <path class="cls-1" d="m140.41,48.98c-5.97,0-10.47-4.42-10.47-10.29s4.5-10.29,10.47-10.29,10.47,4.42,10.47,10.29-4.5,10.29-10.47,10.29Zm0-19.07c-4.98,0-8.87,3.86-8.87,8.78s3.9,8.78,8.87,8.78,8.87-3.86,8.87-8.78-3.9-8.78-8.87-8.78Z"></path>
        <path class="cls-1" d="m140.42,49.16c-6.07,0-10.64-4.5-10.64-10.46s4.58-10.46,10.64-10.46,10.64,4.5,10.64,10.46-4.58,10.46-10.64,10.46Zm0-19.07c-4.88,0-8.7,3.78-8.7,8.61s3.82,8.61,8.7,8.61,8.7-3.78,8.7-8.61-3.82-8.61-8.7-8.61Z"></path>
        <path class="cls-1" d="m140.41,48.86c-5.9,0-10.34-4.37-10.34-10.16s4.45-10.16,10.34-10.16,10.34,4.37,10.34,10.16-4.45,10.16-10.34,10.16Zm0-19.07c-5.04,0-9,3.91-9,8.91s3.95,8.91,9,8.91,9-3.91,9-8.91-3.95-8.91-9-8.91Z"></path>
        <path class="cls-1" d="m140.42,49.03c-6,0-10.52-4.45-10.52-10.34s4.52-10.34,10.52-10.34,10.52,4.45,10.52,10.34-4.52,10.34-10.52,10.34Zm0-19.07c-4.94,0-8.82,3.83-8.82,8.73s3.87,8.73,8.82,8.73,8.82-3.83,8.82-8.73-3.87-8.73-8.82-8.73Z"></path>
        <path class="cls-1" d="m130.19,38.69c0-5.66,4.35-10.04,10.22-10.04s10.22,4.38,10.22,10.04-4.32,10.04-10.22,10.04-10.22-4.38-10.22-10.04Zm19.34,0c0-5.07-3.93-9.03-9.12-9.03s-9.12,3.96-9.12,9.03,3.93,9.03,9.12,9.03,9.12-3.96,9.12-9.03Z"></path>
      </g>
      <g>
        <path class="cls-1" d="m24.68,49.6c-.35,0-.69-.14-.94-.39L.39,25.85c-.52-.52-.52-1.36,0-1.88L23.74.62c.25-.25.58-.39.94-.39s.69.14.94.39l23.36,23.36c.52.52.52,1.36,0,1.88l-23.36,23.36c-.25.25-.58.39-.94.39Zm0-46.15c-.09,0-.17.03-.23.09L3.31,24.69c-.13.13-.13.33,0,.46l21.14,21.14c.06.06.14.09.23.09s.17-.03.23-.09l21.14-21.14c.13-.13.13-.33,0-.46L24.91,3.54c-.06-.06-.14-.09-.23-.09Z"></path>
        <path class="cls-1" d="m48.77,24.19L25.41.83c-.4-.4-1.05-.4-1.45,0L.6,24.19c-.4.4-.4,1.05,0,1.45l23.36,23.36c.4.4,1.05.4,1.45,0l23.36-23.36c.4-.4.4-1.05,0-1.45Zm-2.5,1.17l-21.14,21.14c-.24.24-.64.24-.88,0L3.1,25.36c-.24-.24-.24-.64,0-.88L24.24,3.33c.24-.24.64-.24.88,0l21.14,21.14c.24.24.24.64,0,.88Z"></path>
      </g>
      <g>
        <path class="cls-1" d="m24.32,40.47c-1.54,0-3.02-.47-4.29-1.35-1.66-1.15-2.77-2.88-3.13-4.87-.74-4.08,1.97-8.02,6.05-8.79.26-.05.48-.07.75-.1,0,0,.44-.03.44-.03.02,0,.12,0,.14,0h.16c.23,0,.4.04.54.13.46.28.74.76.76,1.29.01.5-.22.98-.62,1.29-.12.09-.26.15-.41.18-.06.01-.12.02-.18.02h-.15c-.07,0-.11,0-.14,0-.27,0-.5.03-.71.07-2.52.47-4.21,2.9-3.75,5.41.4,2.22,2.33,3.83,4.58,3.83.28,0,.56-.03.83-.08,2.52-.47,4.21-2.9,3.75-5.41l-4.2-23.18s-.02-.14-.02-.17c-.02-.74.48-1.37,1.19-1.5.07-.01.15-.02.23-.02h0c.79,0,1.43.59,1.49,1.34l4.17,23.01.03.22c.6,4.05-2.07,7.82-6.09,8.57-.49.09-.95.13-1.41.13Z"></path>
        <path class="cls-1" d="m25.64,40.05c-1.91.35-3.84-.07-5.43-1.18s-2.66-2.77-3.01-4.68c-.71-3.92,1.9-7.71,5.81-8.44.24-.04.46-.07.72-.09,0,0,.06,0,.08-.01.03,0,.18,0,.18,0,.05,0,.1,0,.16,0,.03,0,.07,0,.1,0,.08,0,.17,0,.25,0,.12,0,.23.04.33.1.37.22.6.61.61,1.04.01.41-.18.79-.5,1.04-.08.06-.18.1-.28.12-.05,0-.1.01-.14.01-.07,0-.15,0-.22,0-.02,0-.05,0-.07,0-.29,0-.53.03-.75.07-2.7.5-4.48,3.09-3.99,5.76.49,2.69,3.07,4.48,5.76,3.99,2.7-.5,4.48-3.09,3.99-5.76,0,0-4.2-23.17-4.2-23.18,0-.02-.01-.11-.01-.13-.02-.59.38-1.09.94-1.19.06-.01.12-.02.18-.02.62-.02,1.14.45,1.19,1.06l4.18,23.04c.01.07.02.14.03.2.58,3.91-1.99,7.51-5.84,8.23,0,0-.04,0-.04,0Z"></path>
        <path class="cls-1" d="m24.33,39.79c-3.33,0-6.18-2.38-6.77-5.66-.68-3.74,1.81-7.33,5.55-8.01.23-.04.45-.07.67-.08.01,0,.03,0,.04,0,0,0,.33-.02.33-.02.02,0,.04,0,.06,0h.22c.05,0,.14,0,.19.04.26.16.42.43.43.73,0,.29-.12.56-.35.73-.05.04-.12.06-.18.06,0,0-.28,0-.28,0-.02,0-.03,0-.05,0-.27,0-.54.03-.81.08-1.4.25-2.62,1.04-3.43,2.21-.81,1.17-1.12,2.59-.86,3.99.46,2.54,2.66,4.38,5.24,4.38.32,0,.64-.03.96-.09,1.4-.25,2.62-1.04,3.43-2.21.81-1.17,1.12-2.59.86-3.99l-4.19-23.11s0-.08,0-.12h-.02c0-.24.07-.44.21-.59s.34-.24.55-.24h0c.45,0,.79.33.8.76l4.18,23.03.03.17c.56,3.75-1.9,7.17-5.58,7.83-.41.07-.82.11-1.24.11h0Z"></path>
        <path class="cls-1" d="m30.85,31.94c-.01-.07-.02-.14-.03-.21h0s-4.19-23.08-4.19-23.08h0c0-.27-.23-.47-.49-.47s-.47.23-.47.49c0,0,0,.01,0,.02h0s0,.04,0,.04c0,.02,0,.03,0,.05l3.95,21.76.25,1.35h0c.56,3.06-1.48,5.99-4.54,6.55-3.06.56-5.99-1.48-6.55-4.54-.56-3.06,1.48-5.99,4.54-6.55.29-.05.57-.07.85-.08h0c.11,0,.22,0,.33,0,.14-.11.24-.28.23-.48,0-.21-.12-.38-.28-.48-.1,0-.21,0-.31,0h0c-.07,0-.13,0-.2,0-.04,0-.07,0-.11,0,0,0,0,0,0,0-.23.02-.45.04-.68.08-3.58.65-5.96,4.08-5.31,7.66.65,3.58,4.08,5.96,7.66,5.31,3.51-.64,5.86-3.94,5.34-7.44Z"></path>
      </g>
    </g>
  </g>
</svg>
