<?xml version="1.0" encoding="UTF-8"?>
<svg xmlns="http://www.w3.org/2000/svg" id="Layer_2" data-name="Layer 2" viewBox="0 0 150.7 49">
  <defs>
    <style>
      .cls-1 {
        fill: #242123;
      }

      .cls-2 {
        fill: #231f20;
      }
    </style>
  </defs>
  <g id="Layer_1-2" data-name="Layer 1">
    <g>
      <path class="cls-1" d="m63.09,49c-2.83-.02-5.48-1.13-7.47-3.14-1.99-2.01-3.08-4.68-3.06-7.5.03-5.81,4.78-10.53,10.59-10.53h.06c.33,0,.67.02,1.07.07,0,0,.03,0,.03,0,.03,0,.07,0,.1.02h.07s.12.03.12.03c.07,0,.13.01.2.02.02,0,.04,0,.05.02l.11.02c.11.02.22.03.33.05.02,0,.04.01.06.03.27.24.4.59.34.94-.05.33-.26.62-.57.77-.02,0-.04.01-.05.01,0,0-.02,0-.03,0-.16-.03-.32-.06-.48-.09,0,0-.02,0-.02,0,0,0-.01,0-.02,0-.5-.08-.92-.12-1.33-.12h-.05c-4.84,0-8.8,3.94-8.83,8.78-.03,4.87,3.91,8.85,8.78,8.88h.05c4.84,0,8.8-3.94,8.83-8.78l.2-37.32s0-.04,0-.07v-.07s0-.03.01-.05c.08-.45.44-.75.87-.75.05,0,.09,0,.14.01.23.04.44.16.58.35.14.19.2.43.16.66l-.2,37.24c0,.09,0,.18,0,.27v.08c-.22,5.71-4.86,10.18-10.58,10.18,0,0-.06,0-.06,0Z"></path>
      <path class="cls-1" d="m73.6,38.81c0-.11,0-.23.01-.34h0s.2-37.26.2-37.26h0c.07-.42-.22-.81-.63-.87s-.81.22-.87.63c0,.01,0,.02,0,.03h0s0,.07,0,.07c0,.02,0,.05,0,.07l-.19,35.14v2.18s-.01,0-.01,0c-.03,4.94-4.06,8.93-9,8.9-4.94-.03-8.93-4.06-8.9-9,.03-4.94,4.06-8.93,9-8.9.46,0,.91.05,1.35.12h0c.18.02.35.05.52.09.26-.13.45-.37.5-.68.05-.32-.07-.63-.3-.83-.16-.03-.32-.05-.49-.08h0c-.1-.03-.21-.04-.32-.05-.06,0-.11-.02-.17-.03,0,0,0,0,0,0-.36-.04-.72-.07-1.08-.07-5.78-.03-10.49,4.63-10.52,10.41-.03,5.78,4.63,10.49,10.41,10.52,5.66.03,10.3-4.45,10.51-10.07Z"></path>
      <g>
        <path class="cls-2" d="m51.31,20.46c-.45,0-.78-.33-.78-.78V1.14c0-.47.32-.78.78-.78h6.5c6.25,0,10.29,3.95,10.29,10.05s-4.04,10.05-10.29,10.05h-6.5Zm6.53-1.72c5.2,0,8.42-3.19,8.42-8.33s-3.23-8.33-8.42-8.33h-5.47v16.67h5.47Z"></path>
        <path class="cls-2" d="m51.31,20.34c-.39,0-.66-.27-.66-.66V1.14c0-.4.26-.66.66-.66h6.5c6.18,0,10.17,3.9,10.17,9.93s-3.99,9.93-10.17,9.93h-6.5Zm6.53-1.47c5.27,0,8.55-3.24,8.55-8.46s-3.27-8.46-8.55-8.46h-5.6v16.91h5.6Z"></path>
        <path class="cls-2" d="m51.31,20.22c-.32,0-.54-.22-.54-.54V1.14c0-.34.2-.54.54-.54h6.5c6.1,0,10.05,3.85,10.05,9.81s-3.94,9.81-10.05,9.81h-6.5Zm6.53-1.23c5.35,0,8.67-3.29,8.67-8.58s-3.32-8.58-8.67-8.58h-5.72v17.16h5.72Z"></path>
        <path class="cls-2" d="m50.9,19.68V1.14c0-.27.15-.42.42-.42h6.5c6.2,0,9.92,3.9,9.92,9.68s-3.72,9.68-9.92,9.68h-6.5c-.27,0-.42-.18-.42-.42Zm6.94-.57c5.48,0,8.79-3.49,8.79-8.7s-3.31-8.7-8.79-8.7h-5.84v17.4h5.84Z"></path>
        <path class="cls-2" d="m79.8,20.46c-.45,0-.78-.33-.78-.78V1.14c0-.47.32-.78.78-.78h11.47c.48,0,.81.32.81.78v.15c0,.46-.33.78-.81.78h-10.42v7.37h8.1c.48,0,.81.32.81.78v.15c0,.46-.33.78-.81.78h-8.1v7.58h10.42c.48,0,.81.32.81.78v.15c0,.46-.33.78-.81.78h-11.47Z"></path>
        <path class="cls-2" d="m79.8,20.34c-.39,0-.66-.27-.66-.66V1.14c0-.4.26-.66.66-.66h11.47c.41,0,.69.27.69.66v.15c0,.4-.28.66-.69.66h-10.54v7.61h8.22c.41,0,.69.27.69.66v.15c0,.4-.28.66-.69.66h-8.22v7.82h10.54c.41,0,.69.27.69.66v.15c0,.4-.28.66-.69.66h-11.47Z"></path>
        <path class="cls-2" d="m79.8,20.22c-.32,0-.54-.22-.54-.54V1.14c0-.34.2-.54.54-.54h11.47c.35,0,.57.21.57.54v.15c0,.33-.22.54-.57.54h-10.66v7.86h8.34c.35,0,.57.21.57.54v.15c0,.33-.22.54-.57.54h-8.34v8.07h10.66c.35,0,.57.21.57.54v.15c0,.33-.22.54-.57.54h-11.47Z"></path>
        <path class="cls-2" d="m79.38,19.68V1.14c0-.27.15-.42.42-.42h11.47c.27,0,.45.15.45.42v.15c0,.27-.18.42-.45.42h-10.79v8.1h8.46c.27,0,.45.15.45.42v.15c0,.27-.18.42-.45.42h-8.46v8.31h10.79c.27,0,.45.15.45.42v.15c0,.27-.18.42-.45.42h-11.47c-.27,0-.42-.18-.42-.42Z"></path>
        <path class="cls-2" d="m103.58,20.82c-5.77,0-10.29-4.57-10.29-10.41S97.82,0,103.61,0c2.74,0,5.01.82,6.95,2.5.24.21.29.44.3.59,0,.22-.08.43-.25.6-.02.02-.04.03-.06.05l-.06.04c-.13.15-.35.23-.58.23s-.45-.08-.65-.23c-1.52-1.32-3.54-2.04-5.67-2.04-4.74,0-8.45,3.8-8.45,8.66s3.74,8.66,8.51,8.66c1.63,0,3.99-.34,6.04-1.93v-5.68h-5.71c-.48,0-.81-.32-.81-.78v-.18c0-.44.34-.75.81-.75h6.73c.48,0,.81.32.81.78v6.82c0,.42-.15.73-.51,1.05-.91.73-3.45,2.42-7.43,2.42Z"></path>
        <path class="cls-2" d="m103.58,20.7c-5.7,0-10.17-4.52-10.17-10.29S97.89.12,103.61.12c2.71,0,4.95.81,6.87,2.47.2.18.25.37.26.5,0,.19-.07.37-.21.51-.01.01-.02.02-.04.03l-.06.04c-.13.14-.31.21-.51.21s-.4-.07-.57-.21c-1.55-1.33-3.58-2.06-5.75-2.06-4.81,0-8.57,3.86-8.57,8.78s3.79,8.78,8.63,8.78c1.67,0,4.08-.35,6.16-1.99v-5.87h-5.83c-.41,0-.69-.27-.69-.66v-.18c0-.37.28-.63.69-.63h6.73c.41,0,.69.27.69.66v6.82c0,.38-.14.66-.47.96-.9.72-3.41,2.39-7.34,2.39Z"></path>
        <path class="cls-2" d="m103.58,20.57c-5.63,0-10.04-4.46-10.04-10.16S97.96.25,103.61.25c2.68,0,4.9.8,6.78,2.44.13.12.21.26.21.42,0,.15-.06.3-.18.42l-.11.08c-.09.11-.24.18-.42.18-.17,0-.35-.06-.5-.18-1.56-1.35-3.63-2.09-5.82-2.09-4.88,0-8.7,3.91-8.7,8.91s3.85,8.91,8.76,8.91c1.7,0,4.16-.36,6.28-2.05v-6.05h-5.96c-.35,0-.57-.21-.57-.54v-.18c0-.3.23-.51.57-.51h6.73c.35,0,.57.21.57.54v6.82c0,.35-.12.59-.43.87-.89.71-3.36,2.36-7.26,2.36Z"></path>
        <path class="cls-2" d="m93.66,10.41c0-5.63,4.29-10.04,9.95-10.04,2.65,0,4.86.8,6.7,2.41.24.21.21.48.03.66l-.09.06c-.18.21-.51.21-.77,0-1.52-1.31-3.58-2.12-5.9-2.12-4.92,0-8.82,3.99-8.82,9.03s3.96,9.03,8.88,9.03c3.69,0,5.78-1.61,6.41-2.12v-6.23h-6.08c-.27,0-.45-.15-.45-.42v-.18c0-.24.18-.39.45-.39h6.73c.27,0,.45.15.45.42v6.82c0,.33-.12.54-.39.77-.74.6-3.22,2.32-7.18,2.32-5.57,0-9.92-4.41-9.92-10.04Z"></path>
        <path class="cls-2" d="m124.65,20.82c-6.04,0-10.59-4.48-10.59-10.41S118.61,0,124.65,0s10.59,4.48,10.59,10.41-4.55,10.41-10.59,10.41Zm0-19.07c-4.91,0-8.75,3.8-8.75,8.66s3.84,8.66,8.75,8.66,8.75-3.8,8.75-8.66-3.84-8.66-8.75-8.66Z"></path>
        <path class="cls-2" d="m124.65,20.7c-5.97,0-10.47-4.42-10.47-10.29S118.68.12,124.65.12s10.47,4.42,10.47,10.29-4.5,10.29-10.47,10.29Zm0-19.07c-4.98,0-8.87,3.86-8.87,8.78s3.9,8.78,8.87,8.78,8.87-3.86,8.87-8.78-3.9-8.78-8.87-8.78Z"></path>
        <path class="cls-2" d="m124.65,20.57c-5.9,0-10.34-4.37-10.34-10.16S118.75.25,124.65.25s10.34,4.37,10.34,10.16-4.45,10.16-10.34,10.16Zm0-19.07c-5.04,0-9,3.91-9,8.91s3.95,8.91,9,8.91,9-3.91,9-8.91-3.95-8.91-9-8.91Z"></path>
        <path class="cls-2" d="m114.43,10.41c0-5.66,4.35-10.04,10.22-10.04s10.22,4.38,10.22,10.04-4.32,10.04-10.22,10.04-10.22-4.38-10.22-10.04Zm19.34,0c0-5.07-3.93-9.03-9.12-9.03s-9.12,3.96-9.12,9.03,3.93,9.03,9.12,9.03,9.12-3.96,9.12-9.03Z"></path>
        <path class="cls-2" d="m43.26,48.8c-2.27,0-4.21-1.01-5.63-2.92-.3-.4-.27-.82.09-1.12l.21-.18c.19-.13.36-.19.52-.19.27,0,.49.14.68.41.76,1.02,2.1,2.25,4.13,2.25,2.42,0,4.04-1.67,4.04-4.16v-13.71c0-.49.33-.84.78-.84h.24c.47,0,.81.35.81.84v13.71c0,3.48-2.42,5.91-5.88,5.91Z"></path>
        <path class="cls-2" d="m43.26,48.68c-2.23,0-4.14-.99-5.53-2.87-.26-.35-.24-.7.07-.96l.21-.18c.17-.11.31-.16.44-.16.22,0,.42.12.57.36.78,1.05,2.15,2.3,4.24,2.3,2.49,0,4.16-1.72,4.16-4.28v-13.71c0-.42.28-.72.66-.72h.24c.41,0,.69.3.69.72v13.71c0,3.41-2.37,5.79-5.76,5.79Z"></path>
        <path class="cls-2" d="m43.26,48.56c-2.19,0-4.07-.98-5.43-2.82-.3-.4-.1-.67.05-.79l.21-.18c.14-.09.25-.13.36-.13.18,0,.34.1.47.31.8,1.07,2.2,2.36,4.34,2.36,2.56,0,4.29-1.77,4.29-4.41v-13.71c0-.35.22-.6.54-.6h.24c.34,0,.57.24.57.6v13.71c0,3.34-2.32,5.66-5.63,5.66Z"></path>
        <path class="cls-2" d="m37.92,45.66c-.18-.24-.18-.45.03-.63l.21-.18c.27-.18.48-.12.66.15,1.04,1.4,2.53,2.41,4.44,2.41,2.56,0,4.41-1.76,4.41-4.53v-13.71c0-.3.18-.48.42-.48h.24c.27,0,.45.18.45.48v13.71c0,3.46-2.41,5.54-5.51,5.54-2.38,0-4.14-1.16-5.33-2.77Z"></path>
        <path class="cls-2" d="m84.96,48.44c-.47,0-.78-.34-.78-.84v-6.78l-7.24-11.44c-.13-.23-.14-.5-.01-.71.12-.21.34-.33.59-.33h.39c.4,0,.7.19.92.58l6.26,10,6.27-10.02c.21-.37.51-.56.91-.56h.33c.28,0,.51.13.63.36.11.22.09.49-.06.7l-7.14,11.36v6.84c0,.49-.34.84-.81.84h-.24Z"></path>
        <path class="cls-2" d="m84.96,48.32c-.4,0-.66-.28-.66-.72v-6.81l-7.26-11.47c-.11-.19-.11-.41,0-.58.1-.17.28-.27.48-.27h.39c.36,0,.62.16.81.51l6.37,10.18,6.38-10.19c.19-.34.45-.5.8-.5h.33c.23,0,.43.11.52.29.09.18.07.4-.05.57l-7.17,11.4v6.87c0,.42-.28.72-.69.72h-.24Z"></path>
        <path class="cls-2" d="m84.96,48.2c-.33,0-.54-.23-.54-.6v-6.85l-7.28-11.5c-.08-.15-.09-.32,0-.46.08-.13.21-.21.38-.21h.39c.31,0,.53.14.7.45l6.48,10.35,6.48-10.35c.17-.3.39-.44.7-.44h.33c.18,0,.34.09.41.23.07.14.05.31-.04.44l-7.19,11.44v6.91c0,.36-.23.6-.57.6h-.24Z"></path>
        <path class="cls-2" d="m92.86,29.19l-7.21,11.47v6.94c0,.3-.18.48-.45.48h-.24c-.27,0-.42-.18-.42-.48v-6.88l-7.3-11.53c-.12-.21,0-.48.27-.48h.39c.27,0,.45.12.6.39l6.59,10.52,6.59-10.52c.15-.27.33-.39.6-.39h.33c.3,0,.42.27.27.48Z"></path>
        <path class="cls-2" d="m97.41,48.44c-.45,0-.78-.33-.78-.78v-18.53c0-.47.32-.78.78-.78h11.47c.48,0,.81.32.81.78v.15c0,.46-.33.78-.81.78h-10.42v7.37h8.1c.48,0,.81.32.81.78v.15c0,.46-.33.78-.81.78h-8.1v7.58h10.42c.48,0,.81.32.81.78v.15c0,.46-.33.78-.81.78h-11.47Z"></path>
        <path class="cls-2" d="m97.41,48.32c-.39,0-.66-.27-.66-.66v-18.53c0-.4.26-.66.66-.66h11.47c.41,0,.69.27.69.66v.15c0,.4-.28.66-.69.66h-10.54v7.61h8.22c.41,0,.69.27.69.66v.15c0,.4-.28.66-.69.66h-8.22v7.82h10.54c.41,0,.69.27.69.66v.15c0,.4-.28.66-.69.66h-11.47Z"></path>
        <path class="cls-2" d="m97.41,48.2c-.32,0-.54-.22-.54-.54v-18.53c0-.34.2-.54.54-.54h11.47c.35,0,.57.21.57.54v.15c0,.33-.22.54-.57.54h-10.66v7.86h8.34c.35,0,.57.21.57.54v.15c0,.33-.22.54-.57.54h-8.34v8.07h10.66c.35,0,.57.21.57.54v.15c0,.33-.22.54-.57.54h-11.47Z"></path>
        <path class="cls-2" d="m97,47.66v-18.53c0-.27.15-.42.42-.42h11.47c.27,0,.45.15.45.42v.15c0,.27-.18.42-.45.42h-10.79v8.1h8.46c.27,0,.45.15.45.42v.15c0,.27-.18.42-.45.42h-8.46v8.31h10.79c.27,0,.45.15.45.42v.15c0,.27-.18.42-.45.42h-11.47c-.27,0-.42-.18-.42-.42Z"></path>
        <path class="cls-2" d="m125.84,48.44c-.45,0-.64-.18-.85-.5l-4.38-8.11h-5.64v7.77c0,.49-.34.84-.81.84h-.24c-.47,0-.78-.34-.78-.84v-18.47c0-.47.32-.78.78-.78h6.67c4.01,0,6.6,2.25,6.6,5.73,0,2.88-1.78,5-4.66,5.58l4.19,7.74c.14.25.15.52.02.73-.12.2-.33.31-.58.31h-.33Zm-4.86-10.3c2.57,0,4.37-1.67,4.37-4.07s-1.84-4.01-4.58-4.01h-5.8v8.09h6.01Z"></path>
        <path class="cls-2" d="m125.84,48.32c-.4,0-.56-.14-.74-.44l-4.41-8.17h-5.84v7.89c0,.42-.28.72-.69.72h-.24c-.4,0-.66-.28-.66-.72v-18.47c0-.4.26-.66.66-.66h6.67c3.93,0,6.47,2.2,6.47,5.61,0,2.89-1.8,4.97-4.72,5.49l4.27,7.89c.12.21.13.44.02.61-.09.16-.27.25-.48.25h-.33Zm-4.86-10.05c2.65,0,4.49-1.72,4.49-4.2s-1.89-4.14-4.7-4.14h-5.92v8.33h6.13Z"></path>
        <path class="cls-2" d="m125.84,48.2c-.34,0-.47-.11-.64-.39l-4.44-8.23h-6.03v8.01c0,.36-.23.6-.57.6h-.24c-.33,0-.54-.23-.54-.6v-18.47c0-.34.2-.54.54-.54h6.67c3.92,0,6.35,2.1,6.35,5.49,0,2.88-1.83,4.94-4.79,5.4l4.36,8.04c.1.17.11.36.02.49-.07.12-.21.19-.37.19h-.33Zm-4.86-9.81c2.72,0,4.62-1.78,4.62-4.32s-1.94-4.26-4.82-4.26h-6.05v8.58h6.25Z"></path>
        <path class="cls-2" d="m126.41,47.57c.15.27.03.51-.24.51h-.33c-.3,0-.39-.09-.54-.33l-4.47-8.28h-6.23v8.13c0,.3-.18.48-.45.48h-.24c-.27,0-.42-.18-.42-.48v-18.47c0-.27.15-.42.42-.42h6.67c3.84,0,6.23,2.09,6.23,5.36,0,2.92-1.94,4.92-4.86,5.3l4.44,8.19Zm-11.8-9.06h6.38c2.77,0,4.74-1.82,4.74-4.44s-1.94-4.38-4.95-4.38h-6.17v8.82Z"></path>
        <path class="cls-2" d="m140.12,48.8c-6.04,0-10.59-4.48-10.59-10.41s4.55-10.41,10.59-10.41,10.59,4.48,10.59,10.41-4.55,10.41-10.59,10.41Zm0-19.07c-4.91,0-8.75,3.8-8.75,8.66s3.84,8.66,8.75,8.66,8.75-3.8,8.75-8.66-3.84-8.66-8.75-8.66Z"></path>
        <path class="cls-2" d="m140.12,48.68c-5.97,0-10.47-4.42-10.47-10.29s4.5-10.29,10.47-10.29,10.47,4.42,10.47,10.29-4.5,10.29-10.47,10.29Zm0-19.07c-4.98,0-8.87,3.86-8.87,8.78s3.9,8.78,8.87,8.78,8.87-3.86,8.87-8.78-3.9-8.78-8.87-8.78Z"></path>
        <path class="cls-2" d="m140.12,48.56c-5.9,0-10.34-4.37-10.34-10.16s4.45-10.16,10.34-10.16,10.34,4.37,10.34,10.16-4.45,10.16-10.34,10.16Zm0-19.07c-5.04,0-9,3.91-9,8.91s3.95,8.91,9,8.91,9-3.91,9-8.91-3.95-8.91-9-8.91Z"></path>
        <path class="cls-2" d="m129.9,38.39c0-5.66,4.35-10.04,10.22-10.04s10.22,4.38,10.22,10.04-4.32,10.04-10.22,10.04-10.22-4.38-10.22-10.04Zm19.34,0c0-5.07-3.93-9.03-9.12-9.03s-9.12,3.96-9.12,9.03,3.93,9.03,9.12,9.03,9.12-3.96,9.12-9.03Z"></path>
      </g>
      <path class="cls-1" d="m48.47,23.89L25.11.53c-.4-.4-1.05-.4-1.45,0L.3,23.89c-.4.4-.4,1.05,0,1.45l23.36,23.36c.4.4,1.05.4,1.45,0l23.36-23.36c.4-.4.4-1.05,0-1.45Zm-2.5,1.17l-21.14,21.14c-.24.24-.64.24-.88,0L2.8,25.06c-.24-.24-.24-.64,0-.88L23.94,3.03c.24-.24.64-.24.88,0l21.14,21.14c.24.24.24.64,0,.88Z"></path>
      <g>
        <path class="cls-1" d="m25.34,39.75c-1.91.35-3.84-.07-5.43-1.18s-2.66-2.77-3.01-4.68c-.71-3.92,1.9-7.71,5.81-8.44.24-.04.46-.07.72-.09,0,0,.06,0,.08-.01.03,0,.18,0,.18,0,.05,0,.1,0,.16,0,.03,0,.07,0,.1,0,.08,0,.17,0,.25,0,.12,0,.23.04.33.1.37.22.6.61.61,1.04.01.41-.18.79-.5,1.04-.08.06-.18.1-.28.12-.05,0-.1.01-.14.01-.07,0-.15,0-.22,0-.02,0-.05,0-.07,0-.29,0-.53.03-.75.07-2.7.5-4.48,3.09-3.99,5.76.49,2.69,3.07,4.48,5.76,3.99,2.7-.5,4.48-3.09,3.99-5.76,0,0-4.2-23.17-4.2-23.18,0-.02-.01-.11-.01-.13-.02-.59.38-1.09.94-1.19.06-.01.12-.02.18-.02.62-.02,1.14.45,1.19,1.06l4.18,23.04c.01.07.02.14.03.2.58,3.91-1.99,7.51-5.84,8.23,0,0-.04,0-.04,0Z"></path>
        <path class="cls-1" d="m30.56,31.64c-.01-.07-.02-.14-.03-.21h0s-4.19-23.08-4.19-23.08h0c0-.27-.23-.47-.49-.47s-.47.23-.47.49c0,0,0,.01,0,.02h0s0,.04,0,.04c0,.02,0,.03,0,.05l3.95,21.76.25,1.35h0c.56,3.06-1.48,5.99-4.54,6.55-3.06.56-5.99-1.48-6.55-4.54-.56-3.06,1.48-5.99,4.54-6.55.29-.05.57-.07.85-.08h0c.11,0,.22,0,.33,0,.14-.11.24-.28.23-.48,0-.21-.12-.38-.28-.48-.1,0-.21,0-.31,0h0c-.07,0-.13,0-.2,0-.04,0-.07,0-.11,0,0,0,0,0,0,0-.23.02-.45.04-.68.08-3.58.65-5.96,4.08-5.31,7.66.65,3.58,4.08,5.96,7.66,5.31,3.51-.64,5.86-3.94,5.34-7.44Z"></path>
      </g>
    </g>
  </g>
</svg>
